<mxfile host="app.diagrams.net" agent="Mozilla/5.0 (Windows NT 10.0; Win64; x64) AppleWebKit/537.36 (KHTML, like Gecko) Chrome/131.0.0.0 Safari/537.36" version="25.0.3">
  <diagram name="Trang-1" id="p1Tt0Mrl5131wZiS9M4t">
    <mxGraphModel dx="1050" dy="557" grid="1" gridSize="10" guides="1" tooltips="1" connect="1" arrows="1" fold="1" page="1" pageScale="1" pageWidth="827" pageHeight="1169" math="0" shadow="0">
      <root>
        <mxCell id="0" />
        <mxCell id="1" parent="0" />
        <mxCell id="z0T_azs6rXY0eHc8-PTQ-1" value="End" style="strokeWidth=2;html=1;shape=mxgraph.flowchart.start_1;whiteSpace=wrap;" vertex="1" parent="1">
          <mxGeometry x="330" y="420" width="100" height="60" as="geometry" />
        </mxCell>
        <mxCell id="z0T_azs6rXY0eHc8-PTQ-13" style="edgeStyle=orthogonalEdgeStyle;rounded=0;orthogonalLoop=1;jettySize=auto;html=1;entryX=0.5;entryY=0;entryDx=0;entryDy=0;" edge="1" parent="1" source="z0T_azs6rXY0eHc8-PTQ-2" target="z0T_azs6rXY0eHc8-PTQ-3">
          <mxGeometry relative="1" as="geometry" />
        </mxCell>
        <mxCell id="z0T_azs6rXY0eHc8-PTQ-2" value="Start" style="strokeWidth=2;html=1;shape=mxgraph.flowchart.start_1;whiteSpace=wrap;" vertex="1" parent="1">
          <mxGeometry x="330" y="10" width="100" height="70" as="geometry" />
        </mxCell>
        <mxCell id="z0T_azs6rXY0eHc8-PTQ-14" style="edgeStyle=orthogonalEdgeStyle;rounded=0;orthogonalLoop=1;jettySize=auto;html=1;" edge="1" parent="1" source="z0T_azs6rXY0eHc8-PTQ-3" target="z0T_azs6rXY0eHc8-PTQ-4">
          <mxGeometry relative="1" as="geometry" />
        </mxCell>
        <mxCell id="z0T_azs6rXY0eHc8-PTQ-3" value="Nhập a,b" style="shape=parallelogram;html=1;strokeWidth=2;perimeter=parallelogramPerimeter;whiteSpace=wrap;rounded=1;arcSize=12;size=0.23;" vertex="1" parent="1">
          <mxGeometry x="330" y="110" width="100" height="60" as="geometry" />
        </mxCell>
        <mxCell id="z0T_azs6rXY0eHc8-PTQ-6" style="edgeStyle=orthogonalEdgeStyle;rounded=0;orthogonalLoop=1;jettySize=auto;html=1;" edge="1" parent="1" source="z0T_azs6rXY0eHc8-PTQ-4">
          <mxGeometry relative="1" as="geometry">
            <mxPoint x="190" y="320" as="targetPoint" />
            <Array as="points">
              <mxPoint x="190" y="250" />
            </Array>
          </mxGeometry>
        </mxCell>
        <mxCell id="z0T_azs6rXY0eHc8-PTQ-7" style="edgeStyle=orthogonalEdgeStyle;rounded=0;orthogonalLoop=1;jettySize=auto;html=1;" edge="1" parent="1" source="z0T_azs6rXY0eHc8-PTQ-4">
          <mxGeometry relative="1" as="geometry">
            <mxPoint x="560" y="320" as="targetPoint" />
          </mxGeometry>
        </mxCell>
        <mxCell id="z0T_azs6rXY0eHc8-PTQ-4" value="a&amp;gt;b" style="strokeWidth=2;html=1;shape=mxgraph.flowchart.decision;whiteSpace=wrap;" vertex="1" parent="1">
          <mxGeometry x="320" y="200" width="120" height="100" as="geometry" />
        </mxCell>
        <mxCell id="z0T_azs6rXY0eHc8-PTQ-12" style="edgeStyle=orthogonalEdgeStyle;rounded=0;orthogonalLoop=1;jettySize=auto;html=1;entryX=0;entryY=0.5;entryDx=0;entryDy=0;entryPerimeter=0;" edge="1" parent="1" source="z0T_azs6rXY0eHc8-PTQ-8" target="z0T_azs6rXY0eHc8-PTQ-1">
          <mxGeometry relative="1" as="geometry">
            <mxPoint x="190" y="450" as="targetPoint" />
            <Array as="points">
              <mxPoint x="190" y="450" />
            </Array>
          </mxGeometry>
        </mxCell>
        <mxCell id="z0T_azs6rXY0eHc8-PTQ-8" value="In &quot;b là số bé hơn&quot;" style="rounded=1;whiteSpace=wrap;html=1;absoluteArcSize=1;arcSize=14;strokeWidth=2;" vertex="1" parent="1">
          <mxGeometry x="110" y="320" width="160" height="50" as="geometry" />
        </mxCell>
        <mxCell id="z0T_azs6rXY0eHc8-PTQ-10" style="edgeStyle=orthogonalEdgeStyle;rounded=0;orthogonalLoop=1;jettySize=auto;html=1;entryX=1;entryY=0.5;entryDx=0;entryDy=0;entryPerimeter=0;" edge="1" parent="1" source="z0T_azs6rXY0eHc8-PTQ-9" target="z0T_azs6rXY0eHc8-PTQ-1">
          <mxGeometry relative="1" as="geometry">
            <mxPoint x="560" y="470" as="targetPoint" />
            <Array as="points">
              <mxPoint x="560" y="450" />
            </Array>
          </mxGeometry>
        </mxCell>
        <mxCell id="z0T_azs6rXY0eHc8-PTQ-9" value="In &quot;a là số bé hơn&quot;" style="rounded=1;whiteSpace=wrap;html=1;absoluteArcSize=1;arcSize=14;strokeWidth=2;" vertex="1" parent="1">
          <mxGeometry x="480" y="320" width="160" height="50" as="geometry" />
        </mxCell>
      </root>
    </mxGraphModel>
  </diagram>
</mxfile>
